# This file uses centimeters as units for non-parametric coordinates.

mtllib book.mtl
g default
v -0.308609 -0.049872 0.441484
v 0.308609 -0.049872 0.441484
v -0.308609 0.049872 0.441484
v 0.308609 0.049872 0.441484
v -0.308609 0.049872 -0.441484
v 0.308609 0.049872 -0.441484
v -0.308609 -0.049872 -0.441484
v 0.308609 -0.049872 -0.441484
vt -0.005952 -0.029480
vt 1.005952 -0.029480
vt -0.005952 0.982425
vt 1.005952 0.982425
vt -0.005952 1.994329
vt 1.005952 1.994329
vt -0.005952 3.006234
vt 1.005952 3.006234
vt -0.005952 4.018139
vt 1.005952 4.018139
vt 2.017857 -0.029480
vt 2.017857 0.982425
vt -1.017857 -0.029480
vt -1.017857 0.982425
vn 0.000000 0.000000 1.000000
vn 0.000000 0.000000 1.000000
vn 0.000000 0.000000 1.000000
vn 0.000000 0.000000 1.000000
vn 0.000000 1.000000 0.000000
vn 0.000000 1.000000 0.000000
vn 0.000000 1.000000 0.000000
vn 0.000000 1.000000 0.000000
vn 0.000000 0.000000 -1.000000
vn 0.000000 0.000000 -1.000000
vn 0.000000 0.000000 -1.000000
vn 0.000000 0.000000 -1.000000
vn 0.000000 -1.000000 0.000000
vn 0.000000 -1.000000 0.000000
vn 0.000000 -1.000000 0.000000
vn 0.000000 -1.000000 0.000000
vn 1.000000 0.000000 0.000000
vn 1.000000 0.000000 0.000000
vn 1.000000 0.000000 0.000000
vn 1.000000 0.000000 0.000000
vn -1.000000 0.000000 0.000000
vn -1.000000 0.000000 0.000000
vn -1.000000 0.000000 0.000000
vn -1.000000 0.000000 0.000000
s off
g pCube1
usemtl lambert2SG
f 1/1/1 2/2/2 4/4/3 3/3/4
f 3/3/5 4/4/6 6/6/7 5/5/8
f 5/5/9 6/6/10 8/8/11 7/7/12
f 7/7/13 8/8/14 2/10/15 1/9/16
f 2/2/17 8/11/18 6/12/19 4/4/20
f 7/13/21 1/1/22 3/3/23 5/14/24
